<mxfile host="app.diagrams.net" modified="2023-05-23T19:48:30.706Z" agent="Mozilla/5.0 (Windows NT 10.0; Win64; x64) AppleWebKit/537.36 (KHTML, like Gecko) Chrome/113.0.0.0 Safari/537.36" etag="N0kEPwU3w76w7-5UnPht" version="21.3.3" type="github">
  <diagram name="Страница 1" id="cysYTuZrdJdEyRGJLU3K">
    <mxGraphModel dx="1434" dy="796" grid="1" gridSize="10" guides="1" tooltips="1" connect="1" arrows="1" fold="1" page="1" pageScale="1" pageWidth="827" pageHeight="1169" math="0" shadow="0">
      <root>
        <mxCell id="0" />
        <mxCell id="1" parent="0" />
        <mxCell id="mjsoIvUwzMQbEm5TKWGo-3" value="" style="html=1;whiteSpace=wrap;" vertex="1" parent="1">
          <mxGeometry x="330" y="80" width="380" height="480" as="geometry" />
        </mxCell>
        <mxCell id="mjsoIvUwzMQbEm5TKWGo-1" value="Actor" style="shape=umlActor;verticalLabelPosition=bottom;verticalAlign=top;html=1;" vertex="1" parent="1">
          <mxGeometry x="30" y="275" width="30" height="60" as="geometry" />
        </mxCell>
        <mxCell id="mjsoIvUwzMQbEm5TKWGo-2" value="Выбор города" style="ellipse;whiteSpace=wrap;html=1;" vertex="1" parent="1">
          <mxGeometry x="350" y="110" width="140" height="70" as="geometry" />
        </mxCell>
        <mxCell id="mjsoIvUwzMQbEm5TKWGo-4" value="Выбор категории фильтров" style="ellipse;whiteSpace=wrap;html=1;" vertex="1" parent="1">
          <mxGeometry x="350" y="200" width="140" height="70" as="geometry" />
        </mxCell>
        <mxCell id="mjsoIvUwzMQbEm5TKWGo-5" value="Выбор метода расчёта&amp;nbsp; &amp;nbsp;" style="ellipse;whiteSpace=wrap;html=1;" vertex="1" parent="1">
          <mxGeometry x="350" y="290" width="140" height="70" as="geometry" />
        </mxCell>
        <mxCell id="mjsoIvUwzMQbEm5TKWGo-6" value="Выбор параметров метода" style="ellipse;whiteSpace=wrap;html=1;" vertex="1" parent="1">
          <mxGeometry x="350" y="380" width="140" height="70" as="geometry" />
        </mxCell>
      </root>
    </mxGraphModel>
  </diagram>
</mxfile>
